<svg xmlns="http://www.w3.org/2000/svg" xmlns:xlink="http://www.w3.org/1999/xlink" width="500" zoomAndPan="magnify" viewBox="0 0 375 374.999991" height="500" preserveAspectRatio="xMidYMid meet" version="1.0"><defs><clipPath id="faeeaddb34"><path d="M 37.5 114 L 118 114 L 118 202 L 37.5 202 Z M 37.5 114 " clip-rule="nonzero"/></clipPath><clipPath id="ae802b1d93"><path d="M 152 254 L 210 254 L 210 316.703125 L 152 316.703125 Z M 152 254 " clip-rule="nonzero"/></clipPath><clipPath id="b2ad5f4fd3"><path d="M 114 45.203125 L 337 45.203125 L 337 296 L 114 296 Z M 114 45.203125 " clip-rule="nonzero"/></clipPath></defs><g clip-path="url(#faeeaddb34)"><path fill="#ff914d" d="M 37.5 114.835938 C 50.28125 142.3125 77.695312 159.152344 104.871094 169.964844 C 106.542969 181.371094 110.246094 192.660156 117.832031 201.5 C 96.089844 197.976562 74.410156 189.074219 59.417969 172.472656 C 45.144531 156.882812 38.039062 135.742188 37.5 114.835938 Z M 37.5 114.835938 " fill-opacity="1" fill-rule="nonzero"/></g><path fill="#ff914d" d="M 118.726562 174.503906 C 136.40625 178.980469 155.097656 181.550781 170.925781 191.226562 C 184.246094 199.109375 195.832031 210.097656 203.535156 223.539062 C 187.171875 214.878906 167.699219 218.9375 150.976562 211.472656 C 134.613281 205.800781 122.308594 191.226562 118.726562 174.503906 Z M 118.726562 174.503906 " fill-opacity="1" fill-rule="nonzero"/><path fill="#ff914d" d="M 58.226562 191.523438 C 76.859375 205.679688 98.777344 217.265625 122.667969 217.683594 C 124.816406 228.316406 130.613281 238.109375 139.390625 244.621094 C 117.292969 242.828125 95.195312 235.0625 78.472656 220.191406 C 69.632812 212.367188 62.523438 202.515625 58.226562 191.523438 Z M 58.226562 191.523438 " fill-opacity="1" fill-rule="nonzero"/><g clip-path="url(#ae802b1d93)"><path fill="#ff914d" d="M 152.648438 254.59375 C 162.148438 259.910156 173.195312 258.179688 183.527344 257.101562 C 192.25 256.027344 202.761719 258.65625 207.179688 266.898438 C 210.941406 274.601562 208.492188 283.5625 205.386719 291.027344 C 201.386719 300.285156 195.890625 308.886719 189.261719 316.53125 C 192.667969 308.109375 198.816406 299.804688 196.847656 290.25 C 194.9375 282.007812 186.15625 278.664062 178.929688 276.574219 C 167.523438 273.40625 157.667969 265.285156 152.648438 254.59375 Z M 152.648438 254.59375 " fill-opacity="1" fill-rule="nonzero"/></g><path fill="#ff914d" d="M 110.78125 255.96875 C 121.472656 256.386719 132.222656 257.28125 142.855469 256.328125 C 145.78125 264.507812 151.277344 271.4375 157.964844 276.871094 C 140.765625 274.902344 122.90625 269.109375 110.78125 255.96875 Z M 110.78125 255.96875 " fill-opacity="1" fill-rule="nonzero"/><g clip-path="url(#b2ad5f4fd3)"><path fill="#ff914d" d="M 335.707031 171.398438 L 305.785156 113.941406 C 307.398438 109.523438 309.609375 105.339844 311.519531 101.039062 C 308.414062 101.757812 305.25 102.472656 302.144531 103.191406 C 303.515625 98.710938 305.546875 94.472656 307.695312 90.351562 C 299.097656 90.769531 291.988281 95.964844 286.078125 101.757812 C 258.542969 99.011719 230.472656 111.671875 213.210938 133.054688 C 216.019531 135.503906 219.125 137.59375 222.109375 139.921875 C 233.457031 126.542969 248.988281 115.496094 266.785156 113.523438 C 251.078125 119.554688 236.5625 130.664062 229.933594 146.550781 C 251.136719 166.738281 265.949219 196.242188 261.351562 225.984375 C 260.273438 219.296875 260.273438 212.429688 258.960938 205.800781 C 256.394531 191.464844 249.585938 178.207031 240.445312 166.976562 C 229.457031 153.71875 216.078125 142.789062 202.460938 132.398438 C 181.976562 116.808594 161.90625 100.5625 143.511719 82.527344 C 132.640625 71.417969 121.355469 59.949219 115.144531 45.375 C 111.082031 73.03125 120.636719 103.191406 141.839844 121.824219 C 167.402344 134.1875 193.921875 145.773438 215.660156 164.410156 C 232.382812 178.085938 245.820312 197.019531 248.808594 218.820312 C 252.808594 245.992188 242.179688 272.871094 227.546875 295.265625 C 241.820312 286.1875 255.199219 275.558594 266.84375 263.375 C 279.863281 249.519531 290.972656 232.019531 290.855469 212.367188 C 269.949219 198.332031 261.886719 170.742188 265.652344 146.671875 C 267.203125 151.03125 268.578125 155.929688 272.519531 158.675781 C 279.328125 163.871094 288.523438 162.5 296.109375 165.722656 C 302.144531 169.484375 304.414062 176.773438 306.382812 183.222656 C 312.894531 183.820312 319.164062 185.671875 325.554688 186.804688 C 333.378906 187.640625 337.5 177.726562 335.707031 171.398438 Z M 323.523438 168.171875 C 320.417969 159.75 317.433594 151.269531 313.191406 143.328125 C 313.191406 143.328125 325.554688 162.5 330.273438 172.292969 C 327.765625 171.515625 324.480469 171.097656 323.523438 168.171875 Z M 323.523438 168.171875 " fill-opacity="1" fill-rule="nonzero"/></g><path fill="#ff914d" d="M 237.699219 216.3125 C 234.59375 198.511719 223.1875 183.402344 209.507812 172.171875 C 181.4375 148.523438 146.4375 135.921875 113.828125 119.972656 C 93.523438 110.058594 73.097656 99.128906 57.449219 82.464844 C 52.253906 77.089844 48.191406 70.820312 44.128906 64.667969 C 44.128906 64.667969 40.964844 75.597656 46.28125 92.140625 C 46.457031 92.796875 46.699219 93.394531 46.9375 94.054688 C 47.535156 95.785156 48.25 97.578125 49.085938 99.429688 C 49.144531 99.546875 49.144531 99.667969 49.207031 99.785156 C 53.265625 109.164062 58.941406 117.464844 65.75 124.691406 C 65.75 124.691406 65.808594 124.75 65.808594 124.75 C 80.144531 140.042969 99.433594 150.910156 118.667969 158.734375 C 137.957031 166.976562 159.160156 169.902344 177.734375 179.878906 C 199.175781 190.507812 217.632812 209.800781 221.574219 234.109375 C 222.289062 233.988281 223.722656 233.75 224.441406 233.691406 C 223.78125 233.871094 222.527344 234.167969 221.871094 234.289062 C 223.363281 246.054688 223.246094 258.058594 220.675781 269.644531 C 218.347656 282.246094 213.210938 294.011719 208.910156 306.019531 C 213.929688 300.105469 217.988281 293.476562 221.929688 286.785156 C 233.9375 265.582031 242.417969 240.738281 237.699219 216.3125 Z M 237.699219 216.3125 " fill-opacity="1" fill-rule="nonzero"/><path fill="#ff914d" d="M 213.09375 247.667969 C 211.0625 239.363281 204.609375 233.210938 196.90625 229.988281 C 195.832031 229.6875 194.757812 229.390625 193.621094 229.152344 C 192.070312 228.792969 190.398438 228.496094 188.664062 228.195312 C 184.125 227.480469 179.050781 227.0625 173.496094 226.523438 C 173.375 226.523438 173.195312 226.523438 173.078125 226.464844 C 160.175781 225.269531 147.214844 224.015625 135.269531 218.519531 C 141.242188 230.882812 151.695312 241.992188 165.429688 245.21875 C 181.199219 249.21875 197.921875 242.648438 213.332031 248.800781 C 213.269531 248.382812 213.210938 248.023438 213.09375 247.667969 Z M 213.09375 247.667969 " fill-opacity="1" fill-rule="nonzero"/></svg>